<?xml version="1.0" standalone="no"?><!DOCTYPE svg PUBLIC "-//W3C//DTD SVG 1.1//EN" "http://www.w3.org/Graphics/SVG/1.1/DTD/svg11.dtd"><svg t="1575091949820" class="icon" viewBox="0 0 1264 1024" version="1.1" xmlns="http://www.w3.org/2000/svg" p-id="14957" xmlns:xlink="http://www.w3.org/1999/xlink" width="158" height="128"><defs><style type="text/css"></style></defs><path d="M986.042123 427.026116h-13.802864c-6.038753-182.025274-154.419545-327.818029-338.170177-327.818028s-332.994103 145.792755-338.170177 327.818028c-6.038753 0-11.214827-0.862679-17.253581-0.862679-136.303286 0-246.726201 108.697557-246.7262 245.000843s110.422915 245.000842 246.7262 245.000842h707.396799c136.303286 0 246.726201-108.697557 246.726201-245.000842s-110.422915-244.138163-246.726201-244.138164z m-219.983151 21.566976c16.390901-12.077506 45.721988-36.232519 45.721988-36.232519v107.834878H698.770008l29.331087-39.683235c0-12.077506-181.162595-98.345409-212.219039 91.443976-25.017692 0-37.095198 0.862679-57.799495 4.313395 52.62342-262.254423 301.074979-169.085088 307.976411-127.676495zM517.607414 713.435552c-16.390901 12.077506-42.271272 36.232519-42.271272 36.232519v-108.697557h106.109519s-17.25358 18.978939-29.331086 35.36984c0 12.940185 181.162595 102.658804 212.219039-95.757372 25.017692 0 38.820556 3.450716 59.524853 0.862679-52.62342 261.391744-299.349621 172.535805-306.251053 131.989891z" p-id="14958"></path></svg>