<?xml version="1.0" standalone="no"?><!DOCTYPE svg PUBLIC "-//W3C//DTD SVG 1.1//EN" "http://www.w3.org/Graphics/SVG/1.1/DTD/svg11.dtd"><svg t="1575096227213" class="icon" viewBox="0 0 1024 1024" version="1.1" xmlns="http://www.w3.org/2000/svg" p-id="19557" xmlns:xlink="http://www.w3.org/1999/xlink" width="128" height="128"><defs><style type="text/css"></style></defs><path d="M512 992C246.912 992 32 777.088 32 512 32 246.896 246.912 32 512 32 777.088 32 992 246.896 992 512 992 777.088 777.088 992 512 992ZM512 96C282.256 96 96 282.256 96 512 96 741.744 282.256 928 512 928 741.744 928 928 741.744 928 512 928 282.256 741.744 96 512 96ZM768 544 544 544 544 768C544 785.68 529.68 800 512 800 494.32 800 480 785.68 480 768L480 544 256 544C238.32 544 224 529.68 224 512 224 494.32 238.32 480 256 480L480 480 480 256C480 238.32 494.32 224 512 224 529.68 224 544 238.32 544 256L544 480 768 480C785.68 480 800 494.32 800 512 800 529.68 785.68 544 768 544Z" p-id="19558"></path></svg>